<?xml version="1.0" encoding="iso-8859-1"?>
<!-- Generator: Adobe Illustrator 16.0.0, SVG Export Plug-In . SVG Version: 6.00 Build 0)  -->
<!DOCTYPE svg PUBLIC "-//W3C//DTD SVG 1.1//EN" "http://www.w3.org/Graphics/SVG/1.1/DTD/svg11.dtd">
<svg version="1.1" id="Capa_1" xmlns="http://www.w3.org/2000/svg" xmlns:xlink="http://www.w3.org/1999/xlink" x="0px" y="0px"
	 width="106.048px" height="106.048px" viewBox="0 0 106.048 106.048" style="enable-background:new 0 0 106.048 106.048;"
	 xml:space="preserve">
<g>
	<path style="fill:#010002;" d="M53.023,27.568c0-2.25-0.466-4.392-1.266-6.359h6.568v15.907h-5.414
		c0.026-0.354,0.111-0.693,0.111-1.056V27.568z M36.061,12.725c8.184,0,14.843,6.662,14.843,14.844v8.492
		c0,8.182-6.659,14.843-14.843,14.843h-8.492c-8.184,0-14.843-6.662-14.843-14.843v-8.492c0-8.182,6.659-14.844,14.843-14.844
		H36.061z M42.667,21.893L28.454,36.114l-7.493-7.492l-3.749,3.749l11.242,11.236l17.963-17.971L42.667,21.893z M31.814,53.023
		v10.605h10.604V51.755c-1.968,0.803-4.108,1.269-6.358,1.269H31.814z M74.233,47.721H63.629v15.908h10.604V47.721z M47.722,48.299
		v15.33h10.604V47.721H48.299C48.109,47.918,47.918,48.115,47.722,48.299z M106.048,21.209v63.629c0,11.666-9.543,21.21-21.21,21.21
		H21.209C9.543,106.048,0,96.504,0,84.838V21.209C0,9.543,9.543,0,21.209,0h63.628C96.505,0,106.048,9.543,106.048,21.209z
		 M79.536,13.256H45.055c-2.62-1.654-5.69-2.651-8.994-2.651h-8.492c-9.329,0-16.964,7.635-16.964,16.964v8.492
		c0,8.963,7.079,16.295,15.907,16.857v39.875h21.21V76.885h10.604v15.907h21.21V13.256z M74.233,21.209H63.629v15.907h10.604V21.209
		z"/>
</g>
<g>
</g>
<g>
</g>
<g>
</g>
<g>
</g>
<g>
</g>
<g>
</g>
<g>
</g>
<g>
</g>
<g>
</g>
<g>
</g>
<g>
</g>
<g>
</g>
<g>
</g>
<g>
</g>
<g>
</g>
</svg>
